<svg xmlns="http://www.w3.org/2000/svg" width="48" height="48" viewBox="0 0 48 48">
  <g>
    <!-- Briefcase base -->
    <path d="M10,16h28c1.1,0,2,0.9,2,2v20c0,1.1-0.9,2-2,2H10c-1.1,0-2-0.9-2-2V18C8,16.9,8.9,16,10,16z" fill="#000000"/>
    
    <!-- Briefcase handle -->
    <path d="M18,16V10c0-1.1,0.9-2,2-2h8c1.1,0,2,0.9,2,2v6" fill="#000000"/>
    
    <!-- Magnifying glass -->
    <circle cx="30" cy="28" r="4" fill="#ffffff" stroke="#000000" stroke-width="1.5"/>
    <rect x="33" y="31" width="6.5" height="2" rx="1" transform="rotate(45, 33, 31)" fill="#000000"/>
  </g>
</svg> 